HIERARCHY
ROOT Hips
{
	OFFSET -0.001795 -0.223333 0.028219
	CHANNELS 6 Xposition Yposition Zposition Zrotation Yrotation Xrotation 
	JOINT LeftUpLeg
	{
		OFFSET 0.069520 -0.091406 -0.006815
		CHANNELS 3 Zrotation Yrotation Xrotation
		JOINT LeftLeg
		{
			OFFSET 0.034277 -0.375199 -0.004496
			CHANNELS 3 Zrotation Yrotation Xrotation
			JOINT LeftFoot
			{
				OFFSET -0.013596 -0.397961 -0.043693
				CHANNELS 3 Zrotation Yrotation Xrotation
				JOINT LeftToe
				{
					OFFSET 0.026358 -0.055791 0.119288
					CHANNELS 3 Zrotation Yrotation Xrotation
					End Site
					{
						OFFSET 0.000000 0.000000 0.000000
					}
				}
			}
		}
	}
	JOINT RightUpLeg
	{
		OFFSET -0.067670 -0.090522 -0.004320
		CHANNELS 3 Zrotation Yrotation Xrotation
		JOINT RightLeg
		{
			OFFSET -0.038290 -0.382569 -0.008850
			CHANNELS 3 Zrotation Yrotation Xrotation
			JOINT RightFoot
			{
				OFFSET 0.015774 -0.398415 -0.042312
				CHANNELS 3 Zrotation Yrotation Xrotation
				JOINT RightToe
				{
					OFFSET -0.025372 -0.048144 0.123348
					CHANNELS 3 Zrotation Yrotation Xrotation
					End Site
					{
						OFFSET 0.000000 0.000000 0.000000
					}
				}
			}
		}
	}
	JOINT Spine
	{
		OFFSET -0.002533 0.108963 -0.026696
		CHANNELS 3 Zrotation Yrotation Xrotation
		JOINT Spine1
		{
			OFFSET 0.005487 0.135180 0.001092
			CHANNELS 3 Zrotation Yrotation Xrotation
			JOINT Spine2
			{
				OFFSET 0.001457 0.052922 0.025425
				CHANNELS 3 Zrotation Yrotation Xrotation
				JOINT Neck
				{
					OFFSET -0.002778 0.213870 -0.042857
					CHANNELS 3 Zrotation Yrotation Xrotation
					JOINT Head
					{
						OFFSET 0.005152 0.064970 0.051349
						CHANNELS 3 Zrotation Yrotation Xrotation
						End Site
						{
							OFFSET 0.000000 0.000000 0.000000
						}
					}
				}
				JOINT LeftShoulder
				{
					OFFSET 0.078845 0.121749 -0.034090
					CHANNELS 3 Zrotation Yrotation Xrotation
					JOINT LeftArm
					{
						OFFSET 0.090977 0.030469 -0.008868
						CHANNELS 3 Zrotation Yrotation Xrotation
						JOINT LeftForeArm
						{
							OFFSET 0.259612 -0.012772 -0.027456
							CHANNELS 3 Zrotation Yrotation Xrotation
							JOINT LeftHand
							{
								OFFSET 0.249234 0.008986 -0.001171
								CHANNELS 3 Zrotation Yrotation Xrotation
								End Site
								{
									OFFSET 0.000000 0.000000 0.000000
								}
							}
						}
					}
				}
				JOINT RightShoulder
				{
					OFFSET -0.081759 0.118833 -0.038615
					CHANNELS 3 Zrotation Yrotation Xrotation
					JOINT RightArm
					{
						OFFSET -0.096012 0.032551 -0.009143
						CHANNELS 3 Zrotation Yrotation Xrotation
						JOINT RightForeArm
						{
							OFFSET -0.253742 -0.013329 -0.021401
							CHANNELS 3 Zrotation Yrotation Xrotation
							JOINT RightHand
							{
								OFFSET -0.255298 0.007772 -0.005559
								CHANNELS 3 Zrotation Yrotation Xrotation
								End Site
								{
									OFFSET 0.000000 0.000000 0.000000
								}
							}
						}
					}
				}
			}
		}
	}
}
MOTION
Frames: 5
Frame Time: 0.050000
-0.028668 0.911355 -0.029980 -0.955506 -7.999914 5.678210 18.080337 4.482800 -42.811278 -19.804570 9.436646 37.314545 11.757980 21.742589 24.166995 0.000000 0.000000 0.000000 6.424307 -0.250474 -0.388057 0.484178 0.686291 14.494604 -8.119986 -17.277125 -10.652447 0.000000 0.000000 0.000000 5.093193 -0.819765 8.573692 -1.480352 0.727975 0.908768 -0.818999 13.921327 10.207020 7.915348 -5.518053 -3.607791 0.000000 0.000000 0.000000 -20.220554 -5.799287 -1.400305 -32.397165 2.400724 -3.874126 -62.851991 -37.782832 23.104134 0.000000 0.000000 0.000000 17.178615 -4.447364 -1.656917 43.637667 3.076825 -4.115663 54.791554 45.348814 28.752588 0.000000 0.000000 0.000000 
-0.028036 0.904156 0.001776 -0.477599 -9.255687 5.358269 18.683613 4.564450 -39.693760 -22.716868 12.489916 41.821583 13.735659 24.622005 18.298273 0.000000 0.000000 0.000000 4.985197 -0.472825 1.647330 0.672688 0.779444 16.066371 -8.312059 -16.926455 -12.642597 0.000000 0.000000 0.000000 4.815583 -0.606366 6.168437 -2.190483 1.086562 1.166681 -0.667630 13.968082 10.371432 7.638326 -4.800073 -5.752914 0.000000 0.000000 0.000000 -20.307833 -4.636581 -1.828689 -32.436644 2.811255 -4.055960 -60.002799 -38.125159 22.282680 0.000000 0.000000 0.000000 18.127178 -5.261637 -2.279629 44.110713 3.278744 -4.094506 54.762493 47.777556 30.190513 0.000000 0.000000 0.000000 
-0.026243 0.894761 0.036496 -0.270338 -9.668277 3.782677 17.620758 3.576541 -34.707410 -22.728769 12.835721 42.233919 13.661257 25.281429 11.530801 0.000000 0.000000 0.000000 3.561138 -0.786860 5.228556 1.377892 0.665632 16.727551 -8.759989 -17.696779 -14.422810 0.000000 0.000000 0.000000 4.361583 -0.516774 5.749347 -1.775413 0.854724 -0.023413 -1.416355 13.475502 11.345321 7.758256 -4.900262 -5.985422 0.000000 0.000000 0.000000 -18.967647 -4.103567 -1.645717 -33.166404 3.636526 -4.541987 -57.275957 -41.051060 23.085298 0.000000 0.000000 0.000000 19.700873 -5.554699 -2.632057 44.087457 3.346810 -4.193743 55.099190 49.930486 31.663674 0.000000 0.000000 0.000000 
-0.023051 0.881356 0.073030 -0.970237 -10.630663 4.171077 16.713676 2.779506 -29.668013 -22.362376 12.914666 41.767772 13.305293 25.734071 4.568823 0.000000 0.000000 0.000000 2.450225 -0.891191 7.311604 1.908039 0.670042 18.291578 -8.846436 -17.259438 -15.565672 0.000000 0.000000 0.000000 5.772412 -0.303146 2.155657 -3.150844 1.588789 1.616455 -1.053828 12.836381 10.636303 6.876172 -4.009684 -7.223631 0.000000 0.000000 0.000000 -17.595222 -2.777368 -1.814141 -34.160707 2.083434 -4.397493 -54.541365 -42.167820 22.749920 0.000000 0.000000 0.000000 18.096653 -5.958357 -3.078706 46.360240 3.567077 -4.029937 51.646598 52.413565 30.972188 0.000000 0.000000 0.000000 
-0.018097 0.865874 0.110205 -2.138258 -11.425832 4.396857 15.524308 1.953857 -24.316909 -20.856418 11.790409 39.592014 13.221162 26.853983 -1.597843 0.000000 0.000000 0.000000 1.533220 -0.887101 8.551841 2.046302 0.838040 20.768427 -8.521523 -15.887727 -15.403430 0.000000 0.000000 0.000000 6.927724 -0.103208 -0.129585 -3.539068 1.754877 0.982779 -0.781185 12.064400 11.735543 6.585429 -3.651536 -8.498167 0.000000 0.000000 0.000000 -16.412531 -2.768075 -1.288149 -36.204230 0.846371 -4.567025 -51.726920 -44.155256 22.939794 0.000000 0.000000 0.000000 18.424561 -5.666446 -3.195806 45.862597 3.885893 -3.949011 49.798791 54.404543 30.782280 0.000000 0.000000 0.000000 
